<?xml version="1.0" standalone="no"?>
<!DOCTYPE svg PUBLIC "-//W3C//DTD SVG 20010904//EN"
 "http://www.w3.org/TR/2001/REC-SVG-20010904/DTD/svg10.dtd">
<svg version="1.0" xmlns="http://www.w3.org/2000/svg"
 width="700.000000pt" height="700.000000pt" viewBox="0 0 700.000000 700.000000"
 preserveAspectRatio="xMidYMid meet">
<metadata>
Created by potrace 1.11, written by Peter Selinger 2001-2013
</metadata>
<g transform="translate(0.000000,700.000000) scale(0.100000,-0.100000)"
fill="#000000" stroke="none">
<path d="M6360 6959 c-74 -22 -234 -69 -355 -104 -121 -36 -249 -74 -285 -85
-36 -10 -141 -42 -235 -69 -93 -28 -316 -94 -495 -146 -179 -53 -356 -105
-395 -117 -38 -11 -81 -24 -95 -28 -14 -5 -72 -22 -130 -39 -58 -17 -258 -76
-445 -131 -187 -56 -347 -103 -355 -105 -8 -2 -82 -24 -165 -48 -82 -25 -166
-50 -185 -55 -19 -5 -190 -56 -380 -112 -190 -56 -366 -109 -392 -116 -313
-91 -427 -128 -472 -152 -104 -57 -205 -197 -220 -307 -3 -22 -5 -851 -6
-1843 l0 -1803 -42 6 c-24 4 -45 8 -48 10 -5 3 -19 5 -150 24 -66 10 -384 8
-430 -2 -14 -3 -43 -8 -65 -11 -205 -24 -458 -118 -634 -237 -168 -112 -291
-261 -348 -420 -36 -102 -38 -267 -5 -374 63 -202 246 -392 500 -519 91 -46
262 -108 344 -125 24 -5 54 -12 68 -15 25 -6 49 -10 160 -25 99 -13 410 -6
520 13 449 78 791 288 934 573 75 147 69 10 70 1835 l1 1638 65 19 c36 11 119
35 185 55 66 19 307 89 535 156 228 67 451 132 495 145 44 13 136 39 205 60
69 20 316 93 550 161 487 143 519 152 655 193 86 26 165 48 200 57 6 1 64 19
130 39 66 20 127 38 135 40 8 1 85 24 171 49 86 25 160 46 165 46 5 0 9 -521
9 -1257 -1 -920 -4 -1257 -12 -1256 -163 32 -281 45 -428 45 -77 1 -161 -2
-187 -6 -27 -3 -69 -9 -95 -12 -80 -9 -223 -45 -327 -81 -471 -163 -749 -509
-694 -863 49 -314 352 -587 791 -714 237 -69 569 -89 802 -51 64 11 141 27
170 35 93 25 181 54 189 62 6 4 16 8 24 8 21 0 191 88 265 138 38 25 101 78
141 116 108 105 163 189 209 320 l22 61 3 2475 c2 1821 0 2491 -8 2535 -15 77
-57 159 -111 216 -85 89 -176 130 -302 134 -71 3 -99 -2 -217 -36z"/>
</g>
</svg>
